{"title":"The Game Ft. 2 Chainz &amp; Rick Ross - Ali Bomaye [Explicit] 72","uid":9399607,"size":75343828,"categoryP":"video","categoryS":"music_videos","magnet":"?xt=urn:btih:647509f37cbc83be42557e2ab2ec3ebf93ec2c8e&amp;dn=The+Game+Ft.+2+Chainz+%26amp%3B+Rick+Ross+-+Ali+Bomaye+%5BExplicit%5D+72&amp;tr=udp%3A%2F%2Ftracker.openbittorrent.com%3A80&amp;tr=udp%3A%2F%2Fopen.demonii.com%3A1337&amp;tr=udp%3A%2F%2Ftracker.coppersurfer.tk%3A6969&amp;tr=udp%3A%2F%2Fexodus.desync.com%3A6969","seeders":6,"leechers":1,"uploader":"Sbyky","files":1,"time":1388048484,"description":"\n\nGeneral\nComplete name                            : The Game Ft. 2 Chainz &amp; Rick Ross - Ali Bomaye [Explicit] 720p [Sbyky].mp4\nFormat                                   : MPEG-4\nFormat profile                           : Base Media\nCodec ID                                 : isom\nFile size                                : 71.9 MiB\nDuration                                 : 5mn 28s\nOverall bit rate mode                    : Variable\nOverall bit rate                         : 1 834 Kbps\nEncoded date                             : UTC 2013-11-12 05:29:04\nTagged date                              : UTC 2013-11-12 05:29:04\n\nVideo\nID                                       : 1\nFormat                                   : AVC\nFormat/Info                              : Advanced Video Codec\nFormat profile                           : &lt;a class=&quot;__cf_email__&quot; href=&quot;/cdn-cgi/l/email-protection&quot; data-cfemail=&quot;ace1cdc5c2ece09f829d&quot;&gt;[email&amp;#160;protected]&lt;/a&gt;&lt;script cf-hash='f9e31' type=&quot;text/javascript&quot;&gt;\n/* &lt;![CDATA[ */!function(){try{var t=&quot;currentScript&quot;in document?document.currentScript:function(){for(var t=document.getElementsByTagName(&quot;script&quot;),e=t.length;e--;)if(t[e].getAttribute(&quot;cf-hash&quot;))return t[e]}();if(t&amp;&amp;t.previousSibling){var e,r,n,i,c=t.previousSibling,a=c.getAttribute(&quot;data-cfemail&quot;);if(a){for(e=&quot;&quot;,r=parseInt(a.substr(0,2),16),n=2;a.length-n;n+=2)i=parseInt(a.substr(n,2),16)^r,e+=String.fromCharCode(i);e=document.createTextNode(e),c.parentNode.replaceChild(e,c)}}}catch(u){}}();/* ]]&gt; */&lt;/script&gt;\nFormat settings, CABAC                   : Yes\nFormat settings, ReFrames                : 3 frames\nCodec ID                                 : avc1\nCodec ID/Info                            : Advanced Video Coding\nDuration                                 : 5mn 28s\nBit rate                                 : 1 705 Kbps\nWidth                                    : 1 280 pixels\nHeight                                   : 720 pixels\nDisplay aspect ratio                     : 16:9\nFrame rate mode                          : Constant\nFrame rate                               : 23.976 fps\nColor space                              : YUV\nChroma subsampling                       : 4:2:0\nBit depth                                : 8 bits\nScan type                                : Progressive\nBits/(Pixel*Frame)                       : 0.077\nStream size                              : 66.8 MiB (93%)\nEncoded date                             : UTC 2013-11-12 05:29:04\nTagged date                              : UTC 2013-11-12 05:29:04\n\nAudio\nID                                       : 2\nFormat                                   : AAC\nFormat/Info                              : Advanced Audio Codec\nFormat profile                           : LC\nCodec ID                                 : 40\nDuration                                 : 5mn 28s\nBit rate mode                            : Variable\nBit rate                                 : 126 Kbps\nChannel(s)                               : 2 channels\nChannel positions                        : Front: L R\nSampling rate                            : 44.1 KHz\nCompression mode                         : Lossy\nDelay relative to video                  : 42ms\nStream size                              : 4.92 MiB (7%)\nEncoded date                             : UTC 2013-11-12 05:29:19\nTagged date                              : UTC 2013-11-12 05:29:19\n\nShared By Sbyky\n","torrent":{"xt":"urn:btih:647509f37cbc83be42557e2ab2ec3ebf93ec2c8e","amp;dn":"The+Game+Ft.+2+Chainz+%26amp%3B+Rick+Ross+-+Ali+Bomaye+%5BExplicit%5D+72","amp;tr":["udp%3A%2F%2Ftracker.openbittorrent.com%3A80","udp%3A%2F%2Fopen.demonii.com%3A1337","udp%3A%2F%2Ftracker.coppersurfer.tk%3A6969","udp%3A%2F%2Fexodus.desync.com%3A6969"],"infoHash":"647509f37cbc83be42557e2ab2ec3ebf93ec2c8e","infoHashBuffer":{"type":"Buffer","data":[100,117,9,243,124,188,131,190,66,85,126,42,178,236,62,191,147,236,44,142]},"announce":[],"urlList":[]}}